PathFileType	4	(X/Y/Z)	c:\Git\powerlifing_model_clean\simulations\HC835B\Session1\HC835B_CUT_0001\marker_experimental.trc
DataRate	CameraRate	NumFrames	NumMarkers	Units	OrigDataRate	OrigDataStartFrame	OrigNumFrames
240.000000	240.000000	4	38	mm	240.000000	37	75
Frame#	Time	RPSI			LPSI			RASI			LASI			RTH1			RTH2			RTH3			RTH4			RSK1			RSK2			RSK3			RSK4			RCAL1			RCAL2			RCAL3			RST			RPT			RTN			RFMB			RSMB			RVMB			RFMH			RSMH			RVMH			RPM			LTH1			LTH2			LTH3			LTH4			LSK1			LSK2			LSK3			LSK4			LCAL1			LCAL2			LCAL3			LFMH			LVMH			
		X1	Y1	Z1	X2	Y2	Z2	X3	Y3	Z3	X4	Y4	Z4	X5	Y5	Z5	X6	Y6	Z6	X7	Y7	Z7	X8	Y8	Z8	X9	Y9	Z9	X10	Y10	Z10	X11	Y11	Z11	X12	Y12	Z12	X13	Y13	Z13	X14	Y14	Z14	X15	Y15	Z15	X16	Y16	Z16	X17	Y17	Z17	X18	Y18	Z18	X19	Y19	Z19	X20	Y20	Z20	X21	Y21	Z21	X22	Y22	Z22	X23	Y23	Z23	X24	Y24	Z24	X25	Y25	Z25	X26	Y26	Z26	X27	Y27	Z27	X28	Y28	Z28	X29	Y29	Z29	X30	Y30	Z30	X31	Y31	Z31	X32	Y32	Z32	X33	Y33	Z33	X34	Y34	Z34	X35	Y35	Z35	X36	Y36	Z36	X37	Y37	Z37	X38	Y38	Z38	

38	0.1541666666666667	302.6550292968751	1032.3671875	-468.6260986328126	211.3069305419922	1016.8505859375	-417.8115234375001	261.2047729492188	1003.939819335938	-694.0404663085939	62.7757034301758	942.9753417968752	-560.7305908203126	434.5657958984376	774.356872558594	-706.5466308593751	408.1936340332032	771.5344848632815	-761.1051635742189	436.5792236328126	699.8467407226564	-746.7186279296876	402.4744873046876	692.8564453125001	-793.8116455078127	587.4459838867189	301.6738891601563	-672.4043579101564	577.6604003906251	270.9538269042969	-725.2581787109376	603.1663208007814	245.0721740722657	-676.4571533203126	584.0191650390626	212.4575653076172	-723.0468139648439	646.9720458984376	104.9575119018555	-577.5646362304689	621.9365234375001	63.06958389282228	-568.7295532226564	683.6102905273439	72.56771087646486	-587.4762573242189	582.0248413085939	59.58166885375978	-630.1541748046876	685.9525756835939	76.43151855468751	-652.3671875000001	573.8248291015626	71.84085845947267	-690.1353149414064	574.0784301757814	62.65248489379884	-724.7293090820314	613.2237548828126	90.74266815185548	-745.5770874023439	688.7559204101564	48.78439331054689	-693.6417236328126	566.5753173828126	45.11825561523438	-770.5383300781252	611.1671752929689	55.46896743774415	-804.2942504882815	683.4365234375001	34.78643035888673	-773.3544921875002	583.1945190429689	32.49871063232423	-857.7730102539065	0.4677785336971284	693.2711181640626	-554.8659667968751	-33.60300064086915	715.0178222656251	-599.0403442382814	-29.80428695678712	635.1977539062501	-613.4494018554689	-52.60349655151369	661.9122924804689	-663.7988281250001	170.4662780761719	431.5791015625001	-522.9975585937501	179.8473815917969	380.9664306640626	-538.6278686523439	211.6938781738282	397.4068298339845	-503.8854064941407	229.4442596435547	352.9559936523438	-529.6107788085939	367.3203430175782	402.4285888671876	-418.547332763672	370.7491760253907	370.6684570312501	-383.1033325195313	412.8803710937501	387.9852294921876	-420.5230407714845	374.7578735351563	226.4160766601563	-568.6431274414064	324.5993957519532	202.0767822265626	-467.4174194335939	
39	0.1583333333333333	296.2760009765626	1035.6669921875	-484.0363769531251	206.5348052978516	1018.274047851563	-434.2894592285157	256.4724121093751	1007.56103515625	-709.1159057617189	56.75537109375001	944.2086181640627	-575.6708374023439	432.7426757812501	775.4648437500002	-718.3283081054689	406.6736755371095	771.3181152343752	-772.9465332031252	435.6509399414064	700.2269897460939	-757.0393676757814	402.0014648437501	692.0756225585939	-804.278991699219	587.7843017578126	302.2599182128907	-675.9393310546876	578.4354858398439	270.9647216796876	-728.4060668945314	603.7000122070314	245.7846984863282	-679.1618652343751	584.5712280273439	212.3449707031251	-725.3401489257814	646.9705810546876	106.6534729003907	-578.2290649414064	622.2177734375001	64.61215209960939	-569.1406860351564	683.8435668945314	74.45572662353517	-588.0841674804689	582.4840087890626	60.57222747802736	-630.7603149414064	686.1084594726564	78.08949279785158	-652.9046020507814	574.3212280273439	73.5133743286133	-691.3507690429689	574.5355224609376	63.44039916992189	-725.2038574218751	613.3239746093751	91.8345184326172	-747.3685302734376	689.1140747070314	49.91355514526369	-694.1821899414064	566.7140502929689	44.86236953735352	-769.9746704101565	611.5072021484376	55.33614730834962	-804.5703735351565	683.7373046875001	34.8158073425293	-773.741882324219	583.2548217773439	32.53576278686524	-857.7683105468752	-1.160649418830872	692.5418090820314	-577.3359375000001	-37.26910018920899	717.8768310546876	-618.9643554687501	-32.49732971191407	638.4495849609376	-635.8925781250001	-55.59032440185548	666.4281616210939	-685.5158081054689	169.3487854003907	426.7693176269532	-554.1826782226564	177.4464111328125	377.4942321777344	-570.4730224609376	210.2632904052735	391.1458740234376	-536.9529418945314	226.7682189941407	347.4248352050782	-564.3827514648439	366.6560058593751	390.1421813964845	-453.1928710937501	370.5572814941407	356.8311767578126	-419.323699951172	411.7798461914064	375.1326904296876	-456.5852661132814	370.6656799316407	221.067611694336	-611.9363403320314	321.8495178222657	192.6787872314454	-510.6258544921876	
40	0.1625	290.4616699218751	1039.111206054688	-499.6571655273439	201.8565826416016	1019.603637695313	-450.8298339843751	251.1439666748047	1010.865783691406	-724.7111816406251	50.90156936645509	945.287780761719	-590.7736206054689	430.4272460937501	776.7409667968752	-730.2156372070314	404.5210876464845	771.140808105469	-784.8150634765627	434.321746826172	700.7375488281251	-767.3599243164064	401.1770935058595	691.3063964843751	-814.671813964844	588.0900268554689	303.2607421875001	-679.4575805664064	578.8656005859376	271.0604858398438	-731.8529663085939	604.1265869140626	246.7878112792969	-681.8599853515626	585.1303710937501	212.6192626953126	-727.5711669921876	647.1997070312501	108.8309707641602	-579.1452026367189	622.9104003906251	66.68817138671876	-569.6683349609376	684.1383056640626	76.80257415771486	-588.8681640625001	583.1274414062501	62.01878738403322	-631.3390502929689	686.4166259765626	79.96005249023439	-653.7136230468751	575.1204833984376	74.42198944091798	-691.4671020507814	575.1796264648439	63.85132217407228	-724.9483032226564	613.6781616210939	92.34246826171876	-748.2837524414064	689.6174926757814	51.19483184814455	-694.8306884765626	567.2363281250001	45.42115783691407	-770.3159790039065	611.7766113281251	55.14633178710939	-804.8511962890627	684.0646972656251	34.79413604736329	-774.1322021484377	583.3245849609376	32.5788803100586	-857.5767211914065	-3.628929376602174	694.1774291992189	-598.3369140625001	-40.14188766479493	720.3891601562501	-639.0299072265626	-34.96688842773438	641.4364624023439	-658.0864257812501	-58.59688568115236	670.6614990234376	-706.7357177734376	168.2603454589844	421.8008422851564	-585.5184936523439	175.20751953125	373.0353698730469	-603.6239624023439	208.7588958740235	384.9405212402345	-569.9041748046876	223.8952789306641	342.1427917480469	-599.0797729492189	366.1786193847657	377.6764526367188	-488.3862609863282	370.1380310058594	342.6746215820313	-456.2445373535157	411.3081665039064	362.6592407226563	-493.1286926269532	366.2575988769532	215.8881988525391	-654.7982177734376	318.9192810058594	183.0904693603516	-554.3578491210939	
41	0.1666666666666667	284.9124145507813	1042.77294921875	-515.5683593750001	197.2747802734376	1020.926574707031	-467.4645996093751	246.4855957031251	1013.710083007813	-740.3740844726564	45.12341308593751	946.8831787109377	-606.1242065429689	427.5648803710939	777.9758911132815	-742.2684936523439	401.9095153808595	770.8150634765627	-796.756042480469	432.5527954101564	701.2663574218751	-777.661071777344	399.8553771972657	690.4291992187501	-825.0137939453127	588.3688964843751	305.0007934570313	-683.2316284179689	579.1217041015626	271.9434204101563	-734.8268432617189	604.4179077148439	248.3758239746094	-684.7402343750001	585.5988159179689	213.5115509033204	-729.8902587890626	647.8515625000001	111.5854949951172	-580.2699584960939	623.8084106445314	69.44010162353517	-570.1837768554689	684.9299926757814	79.62847900390626	-589.8623046875001	583.9168701171876	64.14204406738283	-631.9238281250001	687.0030517578126	82.04066467285158	-654.6539306640626	575.9957275390626	76.05532836914064	-691.9477539062501	575.8859252929689	65.11907958984376	-725.6948242187501	614.2495117187501	93.11582183837892	-749.3619995117189	690.1066894531251	52.46352386474611	-695.4993896484376	567.7354736328126	45.60848999023438	-770.0001220703127	612.1504516601564	54.95681762695314	-805.0596313476565	684.3627319335939	34.71099472045899	-774.431579589844	583.3323974609376	32.66014099121094	-857.2913208007815	-5.857523918151856	695.8880004882814	-619.2160644531251	-43.00534057617188	722.6791992187501	-658.8918457031251	-37.22322463989259	644.2904663085939	-680.1105346679689	-61.35766220092775	674.4573364257814	-727.8139648437501	167.5287475585938	416.8352661132814	-616.6928710937501	173.0283966064453	368.4873962402344	-636.6286010742189	207.1072235107422	378.6133117675782	-603.1801757812501	221.1153411865235	336.6818847656251	-634.1486206054689	365.4304199218751	364.7064208984376	-524.4057617187501	369.7146301269532	328.5363464355469	-493.7238769531251	410.427703857422	349.7484741210938	-530.3653564453126	362.1116333007813	209.6723022460938	-695.6279907226564	316.0084533691407	173.5822448730469	-599.7883911132814	
